<svg width="72" height="80" viewBox="0 0 72 80" fill="none" xmlns="http://www.w3.org/2000/svg">
<path d="M64 8H47.28C45.6 3.36 41.2 0 36 0C30.8 0 26.4 3.36 24.72 8H8C3.6 8 0 11.6 0 16V72C0 76.4 3.6 80 8 80H64C68.4 80 72 76.4 72 72V16C72 11.6 68.4 8 64 8ZM36 8C38.2 8 40 9.8 40 12C40 14.2 38.2 16 36 16C33.8 16 32 14.2 32 12C32 9.8 33.8 8 36 8ZM36 24C42.64 24 48 29.36 48 36C48 42.64 42.64 48 36 48C29.36 48 24 42.64 24 36C24 29.36 29.36 24 36 24ZM60 72H12V66.4C12 58.4 28 54 36 54C44 54 60 58.4 60 66.4V72Z" fill="#2D3142"/>
</svg>
